<svg id="visual" viewBox="0 0 1805 1000" width="1805" height="1000" xmlns="http://www.w3.org/2000/svg" xmlns:xlink="http://www.w3.org/1999/xlink" version="1.1"><rect width="1805" height="1000" fill="#fff"></rect><g><g transform="translate(591 684)"><path d="M156 -43.5C180.5 24.6 163.6 113.3 108.5 154.7C53.3 196 -40.2 190 -97 145.9C-153.7 101.7 -173.8 19.4 -151.5 -45.8C-129.2 -110.9 -64.6 -158.8 0.6 -159C65.8 -159.2 131.5 -111.6 156 -43.5Z" stroke="#0091FF" fill="none" stroke-width="10"></path></g><g transform="translate(1655 907)"><path d="M160 -51.7C185.5 26.3 169.1 118.2 115.6 156.5C62.1 194.7 -28.4 179.2 -93.4 131.3C-158.5 83.4 -198 3.1 -178.2 -67.1C-158.3 -137.4 -79.2 -197.7 -5.9 -195.8C67.3 -193.8 134.6 -129.7 160 -51.7Z" stroke="#0091FF" fill="none" stroke-width="10"></path></g><g transform="translate(1418 138)"><path d="M143.5 -51.3C164.3 17.3 144.4 94.4 93.9 131.6C43.4 168.9 -37.8 166.3 -90.1 127.5C-142.4 88.7 -165.8 13.6 -146 -53.7C-126.2 -120.9 -63.1 -180.3 -0.9 -180C61.4 -179.8 122.8 -119.8 143.5 -51.3Z" stroke="#0091FF" fill="none" stroke-width="10"></path></g></g></svg>