<svg id="visual" viewBox="0 0 1900 1200" width="1900" height="1200" xmlns="http://www.w3.org/2000/svg" xmlns:xlink="http://www.w3.org/1999/xlink" version="1.1"><rect width="1900" height="1200" fill="#fff"></rect><g><g transform="translate(1111 1070)"><path d="M123.1 -61.1C149.9 -24.6 155.4 34.1 131.3 75.9C107.2 117.7 53.6 142.5 3.3 140.7C-47.1 138.8 -94.2 110.2 -115.8 69.8C-137.5 29.4 -133.7 -22.8 -110.2 -57.4C-86.6 -92 -43.3 -109 2.4 -110.3C48.1 -111.7 96.3 -97.6 123.1 -61.1Z" fill="none" stroke="#0091ff" stroke-width="20"></path></g><g transform="translate(486 1096)"><path d="M137.7 -89.6C157.3 -45.4 137.7 11.3 108.1 57.4C78.6 103.4 39.3 138.6 0.6 138.3C-38.2 138 -76.4 102.1 -95.1 62.3C-113.9 22.4 -113.2 -21.3 -94.1 -65.1C-75 -108.8 -37.5 -152.7 10.7 -158.9C59 -165.1 118 -133.7 137.7 -89.6Z" fill="none" stroke="#0091ff" stroke-width="20"></path></g><g transform="translate(1294 267)"><path d="M66.9 -38.3C83 -10.7 89.9 22.6 77.2 52.6C64.5 82.6 32.2 109.4 0.6 109.1C-31 108.7 -62 81.2 -75.1 50.9C-88.2 20.7 -83.4 -12.4 -67.9 -39.6C-52.4 -66.9 -26.2 -88.4 -0.4 -88.1C25.4 -87.9 50.8 -65.9 66.9 -38.3Z" fill="none" stroke="#0091ff" stroke-width="20"></path></g><g transform="translate(1716 434)"><path d="M102.4 -55.3C121.4 -26.1 117.9 19.9 97 52.1C76.2 84.3 38.1 102.5 5.1 99.6C-27.9 96.6 -55.8 72.5 -74.1 41.8C-92.4 11.1 -101 -26.1 -87 -52.3C-73.1 -78.5 -36.5 -93.8 2.6 -95.3C41.7 -96.8 83.3 -84.5 102.4 -55.3Z" fill="none" stroke="#0091ff" stroke-width="20"></path></g><g transform="translate(1820 1020)"><path d="M61.1 -31.8C74.4 -12.2 77.2 17 65.3 34.9C53.4 52.8 26.7 59.4 -0.2 59.5C-27.1 59.6 -54.2 53.3 -62.1 37.7C-70.1 22 -59 -2.8 -45.5 -22.5C-31.9 -42.3 -16 -56.9 3.9 -59.2C23.9 -61.5 47.7 -51.4 61.1 -31.8Z" fill="none" stroke="#0091ff" stroke-width="20"></path></g></g></svg>