<svg id="visual" viewBox="0 0 1900 150" width="1900" height="150" xmlns="http://www.w3.org/2000/svg" xmlns:xlink="http://www.w3.org/1999/xlink" version="1.1"><path d="M0 90L35.2 88.3C70.3 86.7 140.7 83.3 211 84.5C281.3 85.7 351.7 91.3 422 96.3C492.3 101.3 562.7 105.7 633 102.7C703.3 99.7 773.7 89.3 844.2 86.7C914.7 84 985.3 89 1055.8 95C1126.3 101 1196.7 108 1267 108C1337.3 108 1407.7 101 1478 100.3C1548.3 99.7 1618.7 105.3 1689 105.8C1759.3 106.3 1829.7 101.7 1864.8 99.3L1900 97L1900 151L1864.8 151C1829.7 151 1759.3 151 1689 151C1618.7 151 1548.3 151 1478 151C1407.7 151 1337.3 151 1267 151C1196.7 151 1126.3 151 1055.8 151C985.3 151 914.7 151 844.2 151C773.7 151 703.3 151 633 151C562.7 151 492.3 151 422 151C351.7 151 281.3 151 211 151C140.7 151 70.3 151 35.2 151L0 151Z" fill="#ebd2a0"></path><path d="M0 129L35.2 128.5C70.3 128 140.7 127 211 124.7C281.3 122.3 351.7 118.7 422 117C492.3 115.3 562.7 115.7 633 112.8C703.3 110 773.7 104 844.2 101.5C914.7 99 985.3 100 1055.8 103.5C1126.3 107 1196.7 113 1267 112.8C1337.3 112.7 1407.7 106.3 1478 106.5C1548.3 106.7 1618.7 113.3 1689 116.7C1759.3 120 1829.7 120 1864.8 120L1900 120L1900 151L1864.8 151C1829.7 151 1759.3 151 1689 151C1618.7 151 1548.3 151 1478 151C1407.7 151 1337.3 151 1267 151C1196.7 151 1126.3 151 1055.8 151C985.3 151 914.7 151 844.2 151C773.7 151 703.3 151 633 151C562.7 151 492.3 151 422 151C351.7 151 281.3 151 211 151C140.7 151 70.3 151 35.2 151L0 151Z" fill="#eebe89"></path><path d="M0 137L35.2 138.5C70.3 140 140.7 143 211 139.2C281.3 135.3 351.7 124.7 422 125.2C492.3 125.7 562.7 137.3 633 138.7C703.3 140 773.7 131 844.2 126.5C914.7 122 985.3 122 1055.8 125.2C1126.3 128.3 1196.7 134.7 1267 135.7C1337.3 136.7 1407.7 132.3 1478 130.7C1548.3 129 1618.7 130 1689 132.2C1759.3 134.3 1829.7 137.7 1864.8 139.3L1900 141L1900 151L1864.8 151C1829.7 151 1759.3 151 1689 151C1618.7 151 1548.3 151 1478 151C1407.7 151 1337.3 151 1267 151C1196.7 151 1126.3 151 1055.8 151C985.3 151 914.7 151 844.2 151C773.7 151 703.3 151 633 151C562.7 151 492.3 151 422 151C351.7 151 281.3 151 211 151C140.7 151 70.3 151 35.2 151L0 151Z" fill="#f2a879"></path></svg>