<svg id="visual" viewBox="0 0 1900 300" width="1900" height="300" xmlns="http://www.w3.org/2000/svg" xmlns:xlink="http://www.w3.org/1999/xlink" version="1.1"><path d="M0 151L35.2 151.2C70.3 151.3 140.7 151.7 211 155C281.3 158.3 351.7 164.7 422 163.3C492.3 162 562.7 153 633 148C703.3 143 773.7 142 844.2 153.7C914.7 165.3 985.3 189.7 1055.8 192.5C1126.3 195.3 1196.7 176.7 1267 165.2C1337.3 153.7 1407.7 149.3 1478 151.2C1548.3 153 1618.7 161 1689 156.7C1759.3 152.3 1829.7 135.7 1864.8 127.3L1900 119L1900 301L1864.8 301C1829.7 301 1759.3 301 1689 301C1618.7 301 1548.3 301 1478 301C1407.7 301 1337.3 301 1267 301C1196.7 301 1126.3 301 1055.8 301C985.3 301 914.7 301 844.2 301C773.7 301 703.3 301 633 301C562.7 301 492.3 301 422 301C351.7 301 281.3 301 211 301C140.7 301 70.3 301 35.2 301L0 301Z" fill="#ebd2a0"></path><path d="M0 208L35.2 204.3C70.3 200.7 140.7 193.3 211 197.3C281.3 201.3 351.7 216.7 422 216.8C492.3 217 562.7 202 633 191.7C703.3 181.3 773.7 175.7 844.2 188.3C914.7 201 985.3 232 1055.8 243C1126.3 254 1196.7 245 1267 232.7C1337.3 220.3 1407.7 204.7 1478 200.8C1548.3 197 1618.7 205 1689 205.8C1759.3 206.7 1829.7 200.3 1864.8 197.2L1900 194L1900 301L1864.8 301C1829.7 301 1759.3 301 1689 301C1618.7 301 1548.3 301 1478 301C1407.7 301 1337.3 301 1267 301C1196.7 301 1126.3 301 1055.8 301C985.3 301 914.7 301 844.2 301C773.7 301 703.3 301 633 301C562.7 301 492.3 301 422 301C351.7 301 281.3 301 211 301C140.7 301 70.3 301 35.2 301L0 301Z" fill="#eebe89"></path><path d="M0 220L35.2 223C70.3 226 140.7 232 211 236.5C281.3 241 351.7 244 422 245C492.3 246 562.7 245 633 251.3C703.3 257.7 773.7 271.3 844.2 276.2C914.7 281 985.3 277 1055.8 277.2C1126.3 277.3 1196.7 281.7 1267 276.2C1337.3 270.7 1407.7 255.3 1478 245.7C1548.3 236 1618.7 232 1689 236.3C1759.3 240.7 1829.7 253.3 1864.8 259.7L1900 266L1900 301L1864.8 301C1829.7 301 1759.3 301 1689 301C1618.7 301 1548.3 301 1478 301C1407.7 301 1337.3 301 1267 301C1196.7 301 1126.3 301 1055.8 301C985.3 301 914.7 301 844.2 301C773.7 301 703.3 301 633 301C562.7 301 492.3 301 422 301C351.7 301 281.3 301 211 301C140.7 301 70.3 301 35.2 301L0 301Z" fill="#f2a879"></path></svg>