<svg id="visual" viewBox="0 0 350 250" width="350" height="250" xmlns="http://www.w3.org/2000/svg" xmlns:xlink="http://www.w3.org/1999/xlink" version="1.1"><rect x="0" y="0" width="350" height="250" fill="#EBD2A0"></rect><defs><linearGradient id="grad1_0" x1="28.6%" y1="0%" x2="100%" y2="100%"><stop offset="22.000000000000004%" stop-color="#ebd2a0" stop-opacity="1"></stop><stop offset="78%" stop-color="#ebd2a0" stop-opacity="1"></stop></linearGradient></defs><defs><linearGradient id="grad2_0" x1="0%" y1="0%" x2="71.4%" y2="100%"><stop offset="22.000000000000004%" stop-color="#ebd2a0" stop-opacity="1"></stop><stop offset="78%" stop-color="#ebd2a0" stop-opacity="1"></stop></linearGradient></defs><g transform="translate(350, 0)"><path d="M0 129C-26.8 128.1 -53.5 127.1 -64.5 111.7C-75.5 96.4 -70.7 66.5 -78.8 45.5C-86.9 24.5 -108 12.2 -129 0L0 0Z" fill="#F2A879"></path></g><g transform="translate(0, 250)"><path d="M0 -129C26 -127.6 51.9 -126.2 64.5 -111.7C77.1 -97.3 76.3 -69.8 84.9 -49C93.4 -28.2 111.2 -14.1 129 0L0 0Z" fill="#F2A879"></path></g></svg>