<svg id="visual" viewBox="0 0 1900 1000" width="1900" height="1000" xmlns="http://www.w3.org/2000/svg" xmlns:xlink="http://www.w3.org/1999/xlink" version="1.1"><rect width="1900" height="1000" fill="#fff"></rect><g><g transform="translate(41 782)"><path d="M132 -75.1C158 -31.3 156.9 29.3 130.4 66.7C103.8 104.1 51.9 118.3 6.8 114.3C-38.3 110.4 -76.5 88.3 -92 57.3C-107.5 26.3 -100.1 -13.6 -81 -53.6C-61.9 -93.5 -30.9 -133.4 11 -139.8C53 -146.2 106.1 -119 132 -75.1Z" fill="none" stroke="#0091ff" stroke-width="10"></path></g><g transform="translate(1367 130)"><path d="M41.4 -22.9C51.3 -6.7 55.4 13.8 47.6 31.3C39.7 48.7 19.9 63 -1.1 63.6C-22 64.2 -44 51.1 -55.6 31.5C-67.3 11.9 -68.7 -14.3 -57.7 -31.1C-46.7 -47.9 -23.4 -55.3 -3.8 -53.1C15.7 -50.9 31.5 -39.1 41.4 -22.9Z" fill="none" stroke="#0091ff" stroke-width="10"></path></g><g transform="translate(1774 285)"><path d="M31.6 -19C38.8 -5.8 40.9 9.5 34.8 22.9C28.6 36.3 14.3 47.8 -1.4 48.6C-17.2 49.4 -34.3 39.6 -41.1 25.8C-47.9 11.9 -44.4 -5.8 -35.8 -19.8C-27.2 -33.8 -13.6 -43.9 -0.7 -43.5C12.2 -43.1 24.4 -32.1 31.6 -19Z" fill="none" stroke="#0091ff" stroke-width="10"></path></g><g transform="translate(327 332)"><path d="M65.5 -38.9C77 -17.9 73.1 11 59.6 35.1C46.1 59.1 23 78.4 -3.4 80.3C-29.8 82.2 -59.5 66.9 -74.8 41.8C-90 16.7 -90.8 -18.1 -75.9 -41C-61 -64 -30.5 -75.1 -1.8 -74.1C27 -73.1 54 -59.9 65.5 -38.9Z" fill="none" stroke="#0091ff" stroke-width="10"></path></g><g transform="translate(1233 739)"><path d="M40.3 -23.1C47.3 -11.3 44.4 6.4 36.1 17.1C27.7 27.9 13.9 31.8 0.1 31.8C-13.7 31.7 -27.4 27.7 -37.1 16.2C-46.8 4.6 -52.5 -14.5 -45.6 -26.2C-38.8 -38 -19.4 -42.4 -1.3 -41.7C16.7 -40.9 33.4 -34.9 40.3 -23.1Z" fill="none" stroke="#0091ff" stroke-width="10"></path></g></g></svg>