<svg id="visual" viewBox="0 0 1900 900" width="1900" height="900" xmlns="http://www.w3.org/2000/svg" xmlns:xlink="http://www.w3.org/1999/xlink" version="1.1"><rect width="1900" height="900" fill="#fff"></rect><g><g transform="translate(1854 5)"><path d="M120.8 -71.2C138.1 -39.8 120.9 10.1 95.1 55.7C69.2 101.3 34.6 142.6 1.5 141.7C-31.6 140.9 -63.3 97.8 -80.7 57.1C-98 16.4 -101.2 -21.9 -85.4 -52.5C-69.6 -83.1 -34.8 -105.9 8.5 -110.8C51.8 -115.7 103.5 -102.7 120.8 -71.2Z" fill="none" stroke="#0091ff" stroke-width="20"></path></g><g transform="translate(12 418)"><path d="M39.9 -22.3C47.7 -9.5 47.3 8.8 39.3 24.4C31.2 40 15.6 52.9 -3.3 54.8C-22.3 56.7 -44.5 47.6 -53.3 31.6C-62 15.6 -57.2 -7.3 -46.1 -22C-34.9 -36.7 -17.5 -43.2 -0.7 -42.8C16 -42.4 32.1 -35.1 39.9 -22.3Z" fill="none" stroke="#0091ff" stroke-width="20"></path></g><g transform="translate(1282 605)"><path d="M51.2 -29.4C63.1 -8.9 67.3 16.2 57.5 38.6C47.7 61.1 23.8 80.9 -0.1 80.9C-24 81 -48 61.3 -56.7 39.5C-65.4 17.7 -58.7 -6.2 -46.7 -26.7C-34.7 -47.2 -17.4 -64.4 1.1 -65C19.6 -65.7 39.3 -49.8 51.2 -29.4Z" fill="none" stroke="#0091ff" stroke-width="20"></path></g><g transform="translate(465 532)"><path d="M113.7 -63.7C129.1 -38.9 110.8 7.2 86.2 48.4C61.6 89.6 30.8 125.8 -6.9 129.8C-44.7 133.8 -89.4 105.6 -109.1 67.2C-128.8 28.9 -123.5 -19.7 -101.1 -48.4C-78.8 -77.1 -39.4 -86.1 4.9 -88.9C49.1 -91.7 98.3 -88.4 113.7 -63.7Z" fill="none" stroke="#0091ff" stroke-width="20"></path></g><g transform="translate(983 93)"><path d="M46.7 -29.2C55.1 -12.3 52.9 8.5 43.4 26.8C33.8 45.1 16.9 61 -5.8 64.3C-28.5 67.7 -57 58.5 -66.4 40.3C-75.9 22 -66.3 -5.4 -52 -25.6C-37.8 -45.9 -18.9 -59 0.1 -59.1C19.1 -59.1 38.2 -46.1 46.7 -29.2Z" fill="none" stroke="#0091ff" stroke-width="20"></path></g></g></svg>